<?xml version="1.0" encoding="UTF-8" standalone="no"?>
<!DOCTYPE svg PUBLIC "-//W3C//DTD SVG 1.1//EN" "http://www.w3.org/Graphics/SVG/1.1/DTD/svg11.dtd">
<svg width="100%" height="100%" viewBox="0 0 522 520" version="1.1" xmlns="http://www.w3.org/2000/svg" xmlns:xlink="http://www.w3.org/1999/xlink" xml:space="preserve" xmlns:serif="http://www.serif.com/" style="fill-rule:evenodd;clip-rule:evenodd;stroke-linejoin:round;stroke-miterlimit:1.41421;">
    <g transform="matrix(5.06467,0,0,5.06467,-397.409,-386.606)">
        <path d="M125.972,136.146C133.941,133.058 148.847,130.863 160.177,130.062L160.177,133.777C148.097,134.652 132.701,137.086 126.018,140.148L125.972,140.048L125.972,136.146ZM125.972,142.734C133.941,139.646 148.847,137.452 160.177,136.649L160.177,140.365C148.097,141.24 132.701,143.675 126.018,146.735L125.972,146.636L125.972,142.734ZM125.972,155.909C133.528,152.968 146.114,151.265 151.769,150.613L151.769,154.349C140.306,155.692 130.714,157.76 126.017,159.912L125.972,159.814L125.972,155.909ZM125.972,129.559C133.941,126.471 148.847,124.275 160.177,123.474L160.177,127.19C148.097,128.064 132.701,130.498 126.018,133.56L125.972,133.459L125.972,129.559ZM125.972,149.322C133.941,146.234 148.847,144.039 160.177,143.236L160.177,146.954C148.097,147.828 132.701,150.263 126.018,153.323L125.972,153.224L125.972,149.322ZM125.972,103.207C133.941,100.118 148.847,97.923 160.177,97.121L160.177,100.838C148.097,101.712 132.701,104.147 126.018,107.208L125.972,107.108L125.972,103.207ZM125.972,122.971C133.941,119.883 148.847,117.688 160.177,116.885L160.177,120.602C148.097,121.477 132.701,123.91 126.018,126.972L125.972,126.872L125.972,122.971ZM125.972,109.795C133.941,106.707 148.847,104.511 160.177,103.709L160.177,107.426C148.097,108.301 132.701,110.735 126.018,113.796L125.972,113.696L125.972,109.795ZM125.972,116.383C133.941,113.295 148.847,111.1 160.177,110.297L160.177,114.014C148.097,114.889 132.701,117.322 126.018,120.384L125.972,120.284L125.972,116.383ZM178.056,174.382L120.558,174.382C121.856,170.893 131.545,167.437 145.499,167.437C155.289,167.437 165.124,169.117 173.19,172.169L175.702,173.118L175.702,103.943L178.056,103.943L178.056,174.382ZM102.204,160.49C95.347,157.23 87.605,153.549 81.861,148.506L81.861,82.791C86.85,85.859 92.722,88.33 98.431,90.732C107.69,94.626 116.433,98.304 116.433,102.861L116.433,168.656C113.179,165.711 107.927,163.213 102.204,160.49ZM165.992,159.776C153.751,159.958 129.629,161.936 120.404,168.899L120.404,102.861C120.404,99.761 126.261,96.587 136.072,94.37C144.482,92.471 155.538,91.293 165.992,91.168L165.992,159.776ZM169.701,163.47L169.701,98.669C170.477,98.907 171.245,99.152 171.992,99.417L171.992,167.811C166.351,165.938 160.032,164.683 153.542,164.102C158.272,163.691 163.14,163.47 167.845,163.47L169.701,163.47ZM175.702,100.465L175.702,96.84L174.502,96.386C172.964,95.805 171.348,95.29 169.701,94.807L169.701,87.448L167.845,87.448C155.434,87.448 125.75,89.556 118.377,98.49C115.361,94.175 107.986,91.07 99.747,87.604C93.149,84.828 86.326,81.957 81.15,78.255L78.467,76.334L78.467,150.012L79.019,150.517C85.188,156.157 93.452,160.087 100.746,163.556C108.402,167.196 115.642,170.648 116.362,174.544L116.362,177.859L181.534,177.859L181.534,100.465L175.702,100.465Z"/>
    </g>
</svg>
